<svg xmlns="http://www.w3.org/2000/svg" xmlns:xlink="http://www.w3.org/1999/xlink" version="1.1" style="shape-rendering:geometricPrecision; text-rendering:geometricPrecision; image-rendering:optimizeQuality; fill-rule:evenodd; clip-rule:evenodd" viewBox="323.5 201.5 431.78 618.98">
<g><path style="opacity:1" fill="#fdfefd" d="M 554.5,319.5 C 554.5,321.167 554.5,322.833 554.5,324.5C 544.833,324.5 535.167,324.5 525.5,324.5C 518.321,298.523 505.488,275.856 487,256.5C 480.03,250.274 473.197,243.94 466.5,237.5C 481.871,225.39 497.371,213.39 513,201.5C 531.876,226.08 544.209,253.747 550,284.5C 552.646,296.312 554.146,307.979 554.5,319.5 Z"/></g>
<g><path style="opacity:1" fill="#bfe6d2" d="M 554.5,319.5 C 555.461,321.265 555.795,323.265 555.5,325.5C 545.319,325.827 535.319,325.494 525.5,324.5C 535.167,324.5 544.833,324.5 554.5,324.5C 554.5,322.833 554.5,321.167 554.5,319.5 Z"/></g>
<g><path style="opacity:1" fill="#fefefe" d="M 414.5,340.5 C 427.706,340.594 441.039,341.76 454.5,344C 472.683,349.061 490.683,354.728 508.5,361C 529.167,365.667 549.833,365.667 570.5,361C 583.23,356.868 595.897,352.534 608.5,348C 665.645,329.996 714.478,343.163 755,387.5C 755.591,388.483 755.257,389.15 754,389.5C 657.333,423.171 609.833,491.171 611.5,593.5C 615.787,638.058 632.62,677.058 662,710.5C 685.464,736.314 712.631,757.148 743.5,773C 705.842,811.887 660.509,826.887 607.5,818C 591.511,812.839 575.845,806.839 560.5,800C 552.225,798.063 544.392,796.897 537,796.5C 530.812,797.302 524.645,798.469 518.5,800C 504.279,805.944 489.945,811.61 475.5,817C 421.087,827.755 374.42,813.088 335.5,773C 378.095,751.276 412.595,720.443 439,680.5C 470.82,625.141 476.153,567.474 455,507.5C 434.457,457.623 399.624,421.456 350.5,399C 341.608,395.203 332.608,391.703 323.5,388.5C 347.346,360.078 377.679,344.078 414.5,340.5 Z"/></g>
</svg>