<svg xmlns="http://www.w3.org/2000/svg" viewBox="0 0 32 32"><title>52-Calendar</title><g id="_52-Calendar" data-name="52-Calendar"><path d="M29,0H3A3,3,0,0,0,0,3V29a3,3,0,0,0,3,3H29a3,3,0,0,0,3-3V3A3,3,0,0,0,29,0Zm1,29a1,1,0,0,1-1,1H3a1,1,0,0,1-1-1V10H30ZM10,8V6H22V8ZM30,8H24V5a1,1,0,0,0-1-1H9A1,1,0,0,0,8,5V8H2V3A1,1,0,0,1,3,2H29a1,1,0,0,1,1,1Z"/><rect x="4" y="4" width="2" height="2"/><rect x="26" y="4" width="2" height="2"/><rect x="5" y="12" width="4" height="4" rx="1" ry="1"/><rect x="23" y="12" width="4" height="4" rx="1" ry="1"/><rect x="17" y="12" width="4" height="4" rx="1" ry="1"/><rect x="11" y="12" width="4" height="4" rx="1" ry="1"/><rect x="5" y="18" width="4" height="4" rx="1" ry="1"/><rect x="23" y="18" width="4" height="4" rx="1" ry="1"/><rect x="17" y="18" width="4" height="4" rx="1" ry="1"/><rect x="11" y="18" width="4" height="4" rx="1" ry="1"/><rect x="5" y="24" width="4" height="4" rx="1" ry="1"/><rect x="23" y="24" width="4" height="4" rx="1" ry="1"/><rect x="17" y="24" width="4" height="4" rx="1" ry="1"/><rect x="11" y="24" width="4" height="4" rx="1" ry="1"/></g></svg>