<svg xmlns="http://www.w3.org/2000/svg" xmlns:xlink="http://www.w3.org/1999/xlink" version="1.1" style="shape-rendering:geometricPrecision; text-rendering:geometricPrecision; image-rendering:optimizeQuality; fill-rule:evenodd; clip-rule:evenodd" viewBox="179.5 227.38 720 624.12">
<g><path style="opacity:1" fill="#fefefe" d="M 179.5,227.5 C 255.503,227.167 331.503,227.5 407.5,228.5C 428.072,275.882 464.072,303.049 515.5,310C 553.202,315.38 588.535,308.713 621.5,290C 644.58,274.75 661.246,254.25 671.5,228.5C 747.497,227.5 823.497,227.167 899.5,227.5C 899.5,295.5 899.5,363.5 899.5,431.5C 847.5,431.5 795.5,431.5 743.5,431.5C 743.5,571.5 743.5,711.5 743.5,851.5C 607.5,851.5 471.5,851.5 335.5,851.5C 335.5,711.5 335.5,571.5 335.5,431.5C 283.5,431.5 231.5,431.5 179.5,431.5C 179.5,363.5 179.5,295.5 179.5,227.5 Z"/></g>
</svg>