<svg xmlns="http://www.w3.org/2000/svg" xmlns:xlink="http://www.w3.org/1999/xlink" version="1.1" style="shape-rendering:geometricPrecision; text-rendering:geometricPrecision; image-rendering:optimizeQuality; fill-rule:evenodd; clip-rule:evenodd" viewBox="395.44 191.5 291.96 708">
<g><path style="opacity:1" fill="#fefefe" d="M 455.5,191.5 C 471.5,191.5 487.5,191.5 503.5,191.5C 503.5,231.5 503.5,271.5 503.5,311.5C 527.5,311.5 551.5,311.5 575.5,311.5C 575.5,271.5 575.5,231.5 575.5,191.5C 591.5,191.5 607.5,191.5 623.5,191.5C 623.5,231.5 623.5,271.5 623.5,311.5C 643.5,311.5 663.5,311.5 683.5,311.5C 696.201,375.913 677.868,429.08 628.5,471C 619.558,478.608 610.058,485.442 600,491.5C 599.5,515.498 599.333,539.498 599.5,563.5C 559.5,563.5 519.5,563.5 479.5,563.5C 479.667,539.498 479.5,515.498 479,491.5C 445.352,471.853 420.019,444.519 403,409.5C 399.411,400.478 397.078,391.145 396,381.5C 395.5,358.169 395.333,334.836 395.5,311.5C 415.5,311.5 435.5,311.5 455.5,311.5C 455.5,271.5 455.5,231.5 455.5,191.5 Z"/></g>
<g><path style="opacity:1" fill="#fefefe" d="M 515.5,611.5 C 531.5,611.5 547.5,611.5 563.5,611.5C 563.5,707.5 563.5,803.5 563.5,899.5C 547.5,899.5 531.5,899.5 515.5,899.5C 515.5,803.5 515.5,707.5 515.5,611.5 Z"/></g>
</svg>