<svg xmlns="http://www.w3.org/2000/svg" xmlns:xlink="http://www.w3.org/1999/xlink" version="1.1" style="shape-rendering:geometricPrecision; text-rendering:geometricPrecision; image-rendering:optimizeQuality; fill-rule:evenodd; clip-rule:evenodd" viewBox="311.99 197.5 455.06 702">
<g><path style="opacity:1" fill="#fefefe" d="M 514.5,197.5 C 515.666,279.666 515.832,361.999 515,444.5C 469.236,412.368 423.736,379.868 378.5,347C 416.57,290.754 461.903,240.921 514.5,197.5 Z"/></g>
<g><path style="opacity:1" fill="#fefefe" d="M 563.5,197.5 C 616.758,240.582 662.425,290.416 700.5,347C 655.264,379.868 609.764,412.368 564,444.5C 563.5,362.167 563.333,279.834 563.5,197.5 Z"/></g>
<g><path style="opacity:1" fill="#fefefe" d="M 354.5,388.5 C 407.883,426.946 461.383,465.28 515,503.5C 515.667,548.5 515.667,593.5 515,638.5C 448.667,594.167 382.333,549.833 316,505.5C 322.328,464.35 335.161,425.35 354.5,388.5 Z"/></g>
<g><path style="opacity:1" fill="#fefefe" d="M 723.5,388.5 C 742.236,421.87 754.736,457.537 761,495.5C 695.686,542.991 630.019,589.991 564,636.5C 563.333,592.167 563.333,547.833 564,503.5C 617.499,465.513 670.665,427.179 723.5,388.5 Z"/></g>
<g><path style="opacity:1" fill="#fefefe" d="M 563.5,801.5 C 563.333,766.165 563.5,730.832 564,695.5C 631.667,647.167 699.333,598.833 767,550.5C 768.66,655.408 723.493,732.242 631.5,781C 609.858,791.244 587.191,798.077 563.5,801.5 Z"/></g>
<g><path style="opacity:1" fill="#fefefe" d="M 515.5,801.5 C 439.376,788.211 381.543,748.544 342,682.5C 321.568,644.109 311.568,603.443 312,560.5C 379.586,605.376 447.086,650.376 514.5,695.5C 515.5,730.827 515.833,766.16 515.5,801.5 Z"/></g>
<g><path style="opacity:1" fill="#fefefe" d="M 515.5,801.5 C 531.5,804.167 547.5,804.167 563.5,801.5C 563.5,834.167 563.5,866.833 563.5,899.5C 547.5,899.5 531.5,899.5 515.5,899.5C 515.5,866.833 515.5,834.167 515.5,801.5 Z"/></g>
</svg>