<svg xmlns="http://www.w3.org/2000/svg" xmlns:xlink="http://www.w3.org/1999/xlink" version="1.1" style="shape-rendering:geometricPrecision; text-rendering:geometricPrecision; image-rendering:optimizeQuality; fill-rule:evenodd; clip-rule:evenodd" viewBox="275.44 160.5 528.13 703">
<g><path style="opacity:1" fill="#fefefe" d="M 512.5,160.5 C 523.862,194.257 534.862,228.257 545.5,262.5C 547.998,263.938 550.164,263.604 552,261.5C 559.616,237.984 567.616,214.651 576,191.5C 599.911,203.539 623.745,215.706 647.5,228C 631.96,255.581 616.293,283.081 600.5,310.5C 559.833,311.833 519.167,311.833 478.5,310.5C 458.421,272.674 438.088,235.007 417.5,197.5C 417.709,196.914 418.043,196.414 418.5,196C 450.031,184.389 481.365,172.555 512.5,160.5 Z"/></g>
<g><path style="opacity:1" fill="#fefefe" d="M 465.5,359.5 C 514.834,359.333 564.168,359.5 613.5,360C 659.203,365.599 697.036,385.766 727,420.5C 757.995,459.403 778.661,503.403 789,552.5C 796.845,588.08 801.511,624.08 803,660.5C 803.5,728.166 803.667,795.833 803.5,863.5C 627.5,863.5 451.5,863.5 275.5,863.5C 275.333,795.833 275.5,728.166 276,660.5C 277.491,605.217 287.491,551.551 306,499.5C 320.228,461.524 342.062,428.691 371.5,401C 398.622,377.605 429.955,363.772 465.5,359.5 Z"/></g>
</svg>