<svg xmlns="http://www.w3.org/2000/svg" xmlns:xlink="http://www.w3.org/1999/xlink" version="1.1" style="shape-rendering:geometricPrecision; text-rendering:geometricPrecision; image-rendering:optimizeQuality; fill-rule:evenodd; clip-rule:evenodd" viewBox="407.32 179.5 264.35 720">
<g><path style="opacity:1" fill="#fefefe" d="M 491.5,179.5 C 523.5,179.5 555.5,179.5 587.5,179.5C 587.333,243.501 587.5,307.501 588,371.5C 602.618,391.119 617.618,410.453 633,429.5C 653.156,457.286 665.49,488.286 670,522.5C 671.482,648.148 671.982,773.815 671.5,899.5C 583.5,899.5 495.5,899.5 407.5,899.5C 407.018,773.815 407.518,648.148 409,522.5C 413.51,488.286 425.844,457.286 446,429.5C 461.382,410.453 476.382,391.119 491,371.5C 491.5,307.501 491.667,243.501 491.5,179.5 Z M 527.5,803.5 C 547.481,802.145 566.815,804.978 585.5,812C 603.252,820.085 615.918,833.085 623.5,851C 567.5,851.667 511.5,851.667 455.5,851C 464.451,830.051 479.784,816.051 501.5,809C 510.182,806.565 518.848,804.732 527.5,803.5 Z"/></g>
</svg>