<svg xmlns="http://www.w3.org/2000/svg" xmlns:xlink="http://www.w3.org/1999/xlink" version="1.1" style="shape-rendering:geometricPrecision; text-rendering:geometricPrecision; image-rendering:optimizeQuality; fill-rule:evenodd; clip-rule:evenodd" viewBox="153.5 239.44 793 600.06">
<g><path style="opacity:1" fill="#fefefe" d="M 443.5,239.5 C 564.167,239.333 684.834,239.5 805.5,240C 761.833,283.667 718.167,327.333 674.5,371C 597.501,371.5 520.501,371.667 443.5,371.5C 443.5,327.5 443.5,283.5 443.5,239.5 Z"/></g>
<g><path style="opacity:1" fill="#fdfefe" d="M 394.5,239.5 C 395.499,283.33 395.832,327.33 395.5,371.5C 351.499,371.667 307.499,371.5 263.5,371C 307.368,327.299 351.035,283.465 394.5,239.5 Z"/></g>
<g><path style="opacity:1" fill="#fefefe" d="M 866.5,245.5 C 893.893,287.933 920.56,330.933 946.5,374.5C 892.514,428.986 838.347,483.32 784,537.5C 757.698,494.368 731.198,451.368 704.5,408.5C 758.521,354.146 812.521,299.812 866.5,245.5 Z"/></g>
<g><path style="opacity:1" fill="#fefefe" d="M 215.5,419.5 C 362.835,419.167 510.168,419.5 657.5,420.5C 636.927,472.057 616.26,523.557 595.5,575C 448.167,575.5 300.834,575.667 153.5,575.5C 173.609,523.281 194.276,471.281 215.5,419.5 Z"/></g>
<g><path style="opacity:1" fill="#fefefe" d="M 713.5,514.5 C 734.137,547.327 754.637,580.327 775,613.5C 804.333,584.167 833.667,554.833 863,525.5C 863.667,570.5 863.667,615.5 863,660.5C 813.333,710.167 763.667,759.833 714,809.5C 713.5,711.167 713.333,612.834 713.5,514.5 Z"/></g>
<g><path style="opacity:1" fill="#fefefe" d="M 664.5,529.5 C 665.499,632.665 665.833,735.999 665.5,839.5C 515.5,839.5 365.5,839.5 215.5,839.5C 215.5,767.5 215.5,695.5 215.5,623.5C 352.834,623.667 490.167,623.5 627.5,623C 640.328,592.013 652.662,560.846 664.5,529.5 Z"/></g>
</svg>