<svg xmlns="http://www.w3.org/2000/svg" xmlns:xlink="http://www.w3.org/1999/xlink" version="1.1" style="shape-rendering:geometricPrecision; text-rendering:geometricPrecision; image-rendering:optimizeQuality; fill-rule:evenodd; clip-rule:evenodd" viewBox="371.44 179.5 336.13 696">
<g><path style="opacity:1" fill="#fefffe" d="M 455.5,179.5 C 495.5,179.5 535.5,179.5 575.5,179.5C 575.5,207.5 575.5,235.5 575.5,263.5C 535.5,263.5 495.5,263.5 455.5,263.5C 455.5,235.5 455.5,207.5 455.5,179.5 Z"/></g>
<g><path style="opacity:1" fill="#fefefe" d="M 455.5,311.5 C 495.501,311.333 535.501,311.5 575.5,312C 605.333,355.167 635.167,398.333 665,441.5C 690.107,481.915 704.107,525.915 707,573.5C 707.5,674.166 707.667,774.833 707.5,875.5C 595.5,875.5 483.5,875.5 371.5,875.5C 371.333,769.499 371.5,663.499 372,557.5C 374.753,504.157 387.086,453.157 409,404.5C 424.513,373.473 440.013,342.473 455.5,311.5 Z M 611.5,449.5 C 639.828,486.54 655.661,528.54 659,575.5C 659.5,595.497 659.667,615.497 659.5,635.5C 643.5,635.5 627.5,635.5 611.5,635.5C 611.5,573.5 611.5,511.5 611.5,449.5 Z"/></g>
</svg>