<svg xmlns="http://www.w3.org/2000/svg" xmlns:xlink="http://www.w3.org/1999/xlink" version="1.1" style="shape-rendering:geometricPrecision; text-rendering:geometricPrecision; image-rendering:optimizeQuality; fill-rule:evenodd; clip-rule:evenodd" viewBox="196.5 216.49 679 599.01">
<g><path style="opacity:1" fill="#fefefe" d="M 538.5,216.5 C 539.496,216.414 540.329,216.748 541,217.5C 652.12,416.909 763.62,616.076 875.5,815C 649.167,815.667 422.833,815.667 196.5,815C 310.728,615.612 424.728,416.112 538.5,216.5 Z M 497.5,431.5 C 525.5,431.5 553.5,431.5 581.5,431.5C 575.44,499.493 569.44,567.493 563.5,635.5C 547.5,635.5 531.5,635.5 515.5,635.5C 509.56,567.493 503.56,499.493 497.5,431.5 Z M 533.5,671.5 C 555.273,670.628 569.107,680.628 575,701.5C 576.353,723.296 566.52,737.129 545.5,743C 523.704,744.353 509.871,734.52 504,713.5C 502.762,691.62 512.596,677.62 533.5,671.5 Z"/></g>
</svg>