<?xml version="1.0" encoding="UTF-8"?>
<svg version="1.1" xmlns="http://www.w3.org/2000/svg" width="102" height="129">
<path d="M0 0 C0.84155136 -0.01051392 1.68310272 -0.02102783 2.55015564 -0.03186035 C5.31334129 -0.05812617 8.07419609 -0.04084158 10.83740234 -0.02050781 C12.76598551 -0.02455255 14.6945657 -0.03037815 16.62313843 -0.03790283 C20.65644581 -0.04673044 24.68895379 -0.03394801 28.72216797 -0.00585938 C33.88882156 0.02837239 39.05360828 0.00860432 44.22019386 -0.02729416 C48.19916843 -0.04898347 52.17770075 -0.04207238 56.15668869 -0.0265274 C58.06166175 -0.02252939 59.96667517 -0.02742113 61.8716011 -0.04140472 C64.53397167 -0.05666484 67.19332295 -0.03339859 69.85546875 0 C70.64000931 -0.01214539 71.42454987 -0.02429077 72.23286438 -0.0368042 C75.15105757 0.03094213 77.55009859 0.16459628 79.8662529 2.05831146 C83.42084206 6.22692483 86.08315545 10.53844944 86.61083984 16.02636719 C86.29833984 18.77636719 86.29833984 18.77636719 84.29833984 20.77636719 C81.84912109 20.67871094 81.84912109 20.67871094 79.29833984 19.77636719 C77.71630859 17.78027344 77.71630859 17.78027344 76.48583984 15.33886719 C76.06689453 14.53578125 75.64794922 13.73269531 75.21630859 12.90527344 C74.29833984 10.77636719 74.29833984 10.77636719 74.29833984 8.77636719 C72.64833984 8.77636719 70.99833984 8.77636719 69.29833984 8.77636719 C69.22317139 10.40203613 69.22317139 10.40203613 69.14648438 12.06054688 C67.99140328 36.97359315 66.73152046 61.87773422 65.29833984 86.77636719 C65.86423828 87.0303125 66.43013672 87.28425781 67.01318359 87.54589844 C68.11339844 88.06216797 68.11339844 88.06216797 69.23583984 88.58886719 C69.96673828 88.9253125 70.69763672 89.26175781 71.45068359 89.60839844 C73.29833984 90.77636719 73.29833984 90.77636719 74.29833984 93.77636719 C74.95833984 93.77636719 75.61833984 93.77636719 76.29833984 93.77636719 C80.24916533 100.40810997 82.67464759 105.99003356 81.29833984 113.77636719 C79.21087819 120.11647677 75.45490695 124.3594385 70.18115234 128.39746094 C66.24410187 130.28063007 62.91216664 130.14311227 58.61083984 130.02636719 C57.83933594 130.02121094 57.06783203 130.01605469 56.27294922 130.01074219 C50.6087902 129.93159237 50.6087902 129.93159237 48.29833984 128.77636719 C46.62961015 128.67762341 44.95703711 128.64082982 43.28540039 128.63452148 C42.24059006 128.62748703 41.19577972 128.62045258 40.11930847 128.61320496 C38.41935478 128.60695854 38.41935478 128.60695854 36.68505859 128.60058594 C34.29898206 128.57738781 31.91291432 128.55327048 29.52685547 128.52832031 C25.75441611 128.49318786 21.98229992 128.4638546 18.2097168 128.45043945 C14.57609664 128.43497926 10.94342796 128.39477826 7.31005859 128.35058594 C5.61921394 128.35344856 5.61921394 128.35344856 3.89421082 128.35636902 C-0.50389088 128.28757352 -3.81969655 128.19210181 -7.82739258 126.30297852 C-11.92915596 120.77358562 -12.01303491 113.1224861 -12.29589844 106.42456055 C-12.33520477 105.64249741 -12.37451111 104.86043427 -12.41500854 104.05467224 C-12.54172695 101.49215849 -12.65715714 98.92928343 -12.77197266 96.36621094 C-12.85827453 94.55324357 -12.94510726 92.74030141 -13.03244019 90.92738342 C-13.21376878 87.12750221 -13.38967433 83.32742105 -13.56152344 79.52709961 C-13.77875155 74.72945876 -14.00790825 69.93247996 -14.24054337 65.1355648 C-14.71931729 55.23854462 -15.14865512 45.3407433 -15.52111816 35.43914795 C-15.63149255 32.51340432 -15.75407408 29.58884698 -15.8939209 26.66436768 C-16.0496316 23.26550381 -16.1619574 19.86879657 -16.25634766 16.46777344 C-16.30792023 15.53803207 -16.3594928 14.60829071 -16.41262817 13.65037537 C-16.46314217 10.31159242 -16.47520078 7.79365931 -14.40313339 5.06865978 C-9.6595049 0.85462934 -6.26488648 -0.09748909 0 0 Z M-6.70166016 8.77636719 C-7.5823265 13.17969892 -7.71761704 16.8249457 -7.46386719 21.23095703 C-7.42660522 21.96527451 -7.38934326 22.69959198 -7.35095215 23.4561615 C-7.22633576 25.88355516 -7.0928901 28.31038018 -6.95947266 30.73730469 C-6.87018329 32.44622861 -6.78147897 34.15518319 -6.69332886 35.86416626 C-6.45913523 40.37656218 -6.21761028 44.88853574 -5.97436523 49.40045166 C-5.68494303 54.79076085 -5.40348597 60.18148971 -5.12122726 65.57217789 C-5.07564304 66.44266644 -5.03005882 67.31315498 -4.98309326 68.21002197 C-4.93788292 69.07339424 -4.89267258 69.93676651 -4.84609222 70.82630157 C-4.71027901 73.40946791 -4.57297603 75.9925515 -4.43536377 78.57562256 C-3.89040833 88.84864186 -3.38676668 99.1217465 -3.03689575 109.40365601 C-2.91072636 112.74444866 -2.76502594 115.58626983 -1.70166016 118.77636719 C11.82833984 118.77636719 25.35833984 118.77636719 39.29833984 118.77636719 C38.63833984 116.46636719 37.97833984 114.15636719 37.29833984 111.77636719 C36.89938996 104.42136801 38.39459593 98.35239857 43.29833984 92.77636719 C47.07004625 89.72690244 50.64982802 88.10451342 55.29833984 86.77636719 C56.07466281 82.51776976 56.52308621 78.3442955 56.77905273 74.02416992 C56.8377932 73.05466904 56.8377932 73.05466904 56.89772034 72.06558228 C57.02525727 69.94721449 57.14821918 67.8286095 57.27099609 65.70996094 C57.35901093 64.22834386 57.4472665 62.74674106 57.53575134 61.26515198 C57.72006371 58.16784767 57.90224661 55.07042817 58.08276367 51.97290039 C58.31380228 48.0095039 58.54895267 44.04636514 58.7855463 40.08329678 C58.96777364 37.02670876 59.14842872 33.9700295 59.32855034 30.91331673 C59.414727 29.45210822 59.50124702 27.99091992 59.58812141 26.52975273 C59.70925672 24.4863098 59.82842261 22.44276144 59.94702148 20.39916992 C60.04908653 18.65759865 60.04908653 18.65759865 60.1532135 16.88084412 C60.27938381 14.18186617 60.29833984 11.47829259 60.29833984 8.77636719 C38.18833984 8.77636719 16.07833984 8.77636719 -6.70166016 8.77636719 Z M47.29833984 100.77636719 C45.56833938 104.99663738 45.08273313 108.53063951 45.86083984 113.02636719 C47.86003561 116.85091561 50.39928667 119.8268406 54.29833984 121.77636719 C58.91034198 122.33903145 62.42568693 122.18037317 66.67333984 120.21386719 C70.25856662 116.88472804 72.16431126 113.71382707 72.39208984 108.72167969 C72.03170035 103.94651895 70.64411945 101.12214679 67.29833984 97.77636719 C60.54879082 93.27666784 52.25819986 94.54474819 47.29833984 100.77636719 Z " fill="#05482B" transform="translate(15.70166015625,-0.7763671875)"/>
<path d="M0 0 C0.66 0 1.32 0 2 0 C2.39203302 7.77117218 2.7832595 15.54238451 3.17345428 23.31364918 C3.35465944 26.9220916 3.53614314 30.53051957 3.71826172 34.13891602 C3.8939812 37.62072725 4.06897122 41.10257444 4.24345398 44.58444786 C4.34266281 46.56037786 4.44262849 48.53626982 4.54260254 50.51216125 C4.60266479 51.71317978 4.66272705 52.9141983 4.72460938 54.15161133 C4.80455139 55.74045891 4.80455139 55.74045891 4.8861084 57.36140442 C4.96717705 59.23957085 5 61.12008477 5 63 C18.2 62.67 31.4 62.34 45 62 C44.34 60.02 43.68 58.04 43 56 C42.49180337 48.74761066 44.2700328 43.55337078 48.4296875 37.6796875 C50 36 50 36 53 35 C51.84826645 37.46800047 50.95216435 39.04783565 49 41 C48.32348793 43.19704511 48.32348793 43.19704511 47.875 45.625 C47.62363281 46.85089844 47.62363281 46.85089844 47.3671875 48.1015625 C47.24601562 48.72804687 47.12484375 49.35453125 47 50 C46.34 50 45.68 50 45 50 C45 52.97 45 55.94 45 59 C45.99 59 46.98 59 48 59 C49.2236068 56.9254644 49.2236068 56.9254644 49 54 C49.3062434 52.66018514 49.63451555 51.32488113 50 50 C50.66 50 51.32 50 52 50 C52 48.35 52 46.7 52 45 C52.99 45 53.98 45 55 45 C54.83242188 45.58007812 54.66484375 46.16015625 54.4921875 46.7578125 C53.17752866 51.80011158 52.52547932 55.16343684 55 60 C57.38973851 62.76313515 59.23141692 64.85059121 62.98828125 65.16796875 C67.45134312 65.20547347 70.93743705 65.09680669 75 63 C74.505 64.98 74.505 64.98 74 67 C68.47032059 67.71033431 63.50016964 68.30267176 58 67 C58 66.34 58 65.68 58 65 C56.576875 64.7834375 56.576875 64.7834375 55.125 64.5625 C52 64 52 64 50 63 C48.72515747 63.70032349 48.72515747 63.70032349 47.42456055 64.41479492 C43.15052189 66.39321746 39.84699074 66.41731706 35.20703125 66.36328125 C34.37918625 66.36377975 33.55134125 66.36427826 32.69841003 66.36479187 C30.957851 66.3624615 29.21728795 66.35279452 27.47680664 66.33618164 C24.81040471 66.31248138 22.14499692 66.31564174 19.47851562 66.32226562 C17.7838482 66.31669175 16.08918498 66.30958371 14.39453125 66.30078125 C13.59763382 66.30169266 12.80073639 66.30260406 11.97969055 66.30354309 C8.13598992 66.25411188 6.27205171 66.1813678 3 64 C2.34 63.01 1.68 62.02 1 61 C0.34 60.67 -0.32 60.34 -1 60 C-1.4361141 64.21900957 -1.4361141 64.21900957 0.5 67.75 C0.995 68.1625 1.49 68.575 2 69 C2 69.66 2 70.32 2 71 C-1.16115776 69.63016497 -1.9927092 69.0109362 -4 66 C-5.14366257 60.35361563 -5.11915908 54.79378419 -5.0625 49.0625 C-5.05573242 47.75055664 -5.05573242 47.75055664 -5.04882812 46.41210938 C-5.03714834 44.27470953 -5.01921689 42.13734537 -5 40 C-4.01 39.505 -4.01 39.505 -3 39 C-3 42.96 -3 46.92 -3 51 C-1.68 51.33 -0.36 51.66 1 52 C1.66 47.38 2.32 42.76 3 38 C2.34 37.67 1.68 37.34 1 37 C1.00523682 36.43490723 1.01047363 35.86981445 1.01586914 35.28759766 C1.03662422 32.7334097 1.0496554 30.17923947 1.0625 27.625 C1.07087891 26.73554687 1.07925781 25.84609375 1.08789062 24.9296875 C1.09111328 24.07890625 1.09433594 23.228125 1.09765625 22.3515625 C1.10551147 21.17327881 1.10551147 21.17327881 1.11352539 19.97119141 C1.12573953 17.92227332 1.12573953 17.92227332 0 16 C-0.07181821 13.28239892 -0.09299506 10.59140612 -0.0625 7.875 C-0.05798828 7.12089844 -0.05347656 6.36679687 -0.04882812 5.58984375 C-0.03703499 3.72652873 -0.01909942 1.86325445 0 0 Z " fill="#0B4028" transform="translate(9,55)"/>
<path d="M0 0 C3 2 3 2 3.5 4.0625 C3.665 4.701875 3.83 5.34125 4 6 C7.8130784 7.27102613 11.41974472 7.18192734 15.39453125 7.203125 C16.21950607 7.20882507 17.0444809 7.21452515 17.89445496 7.22039795 C19.64031698 7.22984123 21.38619677 7.23637926 23.13208008 7.24023438 C25.79214918 7.24992586 28.45144078 7.28094912 31.11132812 7.3125 C32.80989126 7.31903189 34.5084599 7.32428163 36.20703125 7.328125 C37.39326836 7.3466452 37.39326836 7.3466452 38.60346985 7.36553955 C43.53622394 7.34581846 46.61651532 6.47246933 51 4 C53.1171875 4.36328125 53.1171875 4.36328125 54.875 5.3125 C56.421875 6.1478125 56.421875 6.1478125 58 7 C58 8.65 58 10.3 58 12 C50.09879589 12.26954982 42.19715389 12.49954275 34.29394531 12.7019043 C31.60462728 12.7725903 28.91613912 12.85590414 26.22753906 12.94995117 C22.36548396 13.08034897 18.5037754 13.17814216 14.640625 13.26953125 C12.83419525 13.34105156 12.83419525 13.34105156 10.99127197 13.41401672 C2.68810481 13.56512515 2.68810481 13.56512515 -0.77441406 10.72143555 C-2.30698051 7.31834428 -2.28945196 4.69051246 -2 1 C-1.34 0.67 -0.68 0.34 0 0 Z " fill="#034D2E" transform="translate(9,113)"/>
<path d="M0 0 C22.77 0 45.54 0 69 0 C69.99 3.465 69.99 3.465 71 7 C70.01 7.33 69.02 7.66 68 8 C68.01160156 9.23234375 68.02320312 10.4646875 68.03515625 11.734375 C68.09431789 20.87762114 68.017297 29.89882504 67 39 C66.67 39 66.34 39 66 39 C65.94428466 36.20804224 65.90554045 33.41726983 65.875 30.625 C65.85824219 29.86960937 65.84148437 29.11421875 65.82421875 28.3359375 C65.75167092 19.34000673 66.98204577 11.1615881 68 2 C45.56 2.33 23.12 2.66 0 3 C0 2.01 0 1.02 0 0 Z " fill="#0F3B28" transform="translate(8,6)"/>
<path d="M0 0 C0 2.37159443 -0.0143102 4.7418446 -0.03515625 7.11328125 C-0.09643012 16.77475688 0.01203642 26.40923994 0.4375 36.0625 C0.47673584 36.99553955 0.51597168 37.9285791 0.55639648 38.88989258 C0.59837158 39.76282959 0.64034668 40.6357666 0.68359375 41.53515625 C0.72025146 42.302229 0.75690918 43.06930176 0.79467773 43.85961914 C0.99949896 45.99477693 1.47817422 47.92364974 2 50 C2.09382329 52.51943128 2.12992898 55.04132716 2.125 57.5625 C2.12886719 58.23474609 2.13273438 58.90699219 2.13671875 59.59960938 C2.13061073 62.67499752 1.97991229 65.06026313 1 68 C1.66 68 2.32 68 3 68 C3.05397335 70.4377963 3.09365616 72.87439685 3.125 75.3125 C3.15013672 76.34793945 3.15013672 76.34793945 3.17578125 77.40429688 C3.21217794 81.17135396 3.14378864 82.78431704 1 86 C0.60132679 78.59185701 0.20981417 71.1833618 -0.17345428 63.77440643 C-0.35177972 60.33119145 -0.53224001 56.88812095 -0.71826172 53.4453125 C-1.45997424 39.68739745 -2.13740206 25.93659092 -2.21875 12.15625 C-2.22982788 11.14977417 -2.24090576 10.14329834 -2.25231934 9.10632324 C-2.25090942 8.19274048 -2.24949951 7.27915771 -2.24804688 6.33789062 C-2.24897339 5.54338501 -2.2498999 4.74887939 -2.25085449 3.93029785 C-2 2 -2 2 0 0 Z " fill="#0D3622" transform="translate(2,4)"/>
<path d="M0 0 C0.66 0 1.32 0 2 0 C4.38776806 39.83952909 4.38776806 39.83952909 4 58 C3.34 57.67 2.68 57.34 2 57 C1.89344422 50.55929529 2.03794912 44.37358711 3 38 C2.34 37.67 1.68 37.34 1 37 C1.00523682 36.43490723 1.01047363 35.86981445 1.01586914 35.28759766 C1.03662422 32.7334097 1.0496554 30.17923947 1.0625 27.625 C1.07087891 26.73554687 1.07925781 25.84609375 1.08789062 24.9296875 C1.09111328 24.07890625 1.09433594 23.228125 1.09765625 22.3515625 C1.10289307 21.56604004 1.10812988 20.78051758 1.11352539 19.97119141 C1.12573953 17.92227332 1.12573953 17.92227332 0 16 C-0.07181821 13.28239892 -0.09299506 10.59140612 -0.0625 7.875 C-0.05798828 7.12089844 -0.05347656 6.36679687 -0.04882812 5.58984375 C-0.03703499 3.72652873 -0.01909942 1.86325445 0 0 Z " fill="#05321C" transform="translate(9,55)"/>
<path d="M0 0 C0.66 0 1.32 0 2 0 C4.02393082 4.17435731 4.46195837 7.38041633 4 12 C2.86135464 15.10404625 1.49658535 18.0535976 0 21 C-0.66 20.34 -1.32 19.68 -2 19 C-1.484375 18.01 -0.96875 17.02 -0.4375 16 C1.82103272 10.78310751 0.77238616 6.31715849 -1 1 C-0.67 0.67 -0.34 0.34 0 0 Z " fill="#0D3C24" transform="translate(86,98)"/>
<path d="M0 0 C0.33 1.32 0.66 2.64 1 4 C1.66 4 2.32 4 3 4 C1.99382318 6.67576692 1.45785454 7.7785108 -1.1640625 9.046875 C-1.97617188 9.27890625 -2.78828125 9.5109375 -3.625 9.75 C-4.85089844 10.11351563 -4.85089844 10.11351563 -6.1015625 10.484375 C-7.04128906 10.73960938 -7.04128906 10.73960938 -8 11 C-8 10.01 -8 9.02 -8 8 C-5.09399739 6.74335022 -3.20395416 6 0 6 C0 4.02 0 2.04 0 0 Z " fill="#083521" transform="translate(71,80)"/>
<path d="M0 0 C2.00720923 0.28674418 4.01178687 0.60235737 6 1 C6.33 1.99 6.66 2.98 7 4 C6.01 3.67 5.02 3.34 4 3 C2.18869914 2.93086638 0.37498459 2.91536654 -1.4375 2.9375 C-2.38496094 2.94652344 -3.33242187 2.95554687 -4.30859375 2.96484375 C-5.19675781 2.97644531 -6.08492188 2.98804687 -7 3 C-8.32 3 -9.64 3 -11 3 C-8.28963105 -1.06555343 -4.37698085 -0.36268768 0 0 Z " fill="#0A3B26" transform="translate(76,93)"/>
<path d="M0 0 C0.66 0.33 1.32 0.66 2 1 C-0.51407619 5.28324091 -2.12314139 7.64531705 -7 9 C-6.67 7.02 -6.34 5.04 -6 3 C-4.02 3.495 -4.02 3.495 -2 4 C-1.34 2.68 -0.68 1.36 0 0 Z " fill="#073B23" transform="translate(92,118)"/>
<path d="M0 0 C0.66 0.33 1.32 0.66 2 1 C1.855625 1.60328125 1.71125 2.2065625 1.5625 2.828125 C1.376875 3.62734375 1.19125 4.4265625 1 5.25 C0.814375 6.03890625 0.62875 6.8278125 0.4375 7.640625 C-0.12154828 10.25556002 -0.12154828 10.25556002 0 14 C-0.99 13.67 -1.98 13.34 -3 13 C-4.04449911 9.86650268 -3.93423645 9.01031744 -3 6 C-2.34 6 -1.68 6 -1 6 C-1.020625 5.195625 -1.04125 4.39125 -1.0625 3.5625 C-1 1 -1 1 0 0 Z " fill="#053522" transform="translate(62,99)"/>
<path d="M0 0 C2.9719385 1.12451727 5.33440687 2.22293791 8 4 C8 4.66 8 5.32 8 6 C8.66 6 9.32 6 10 6 C10.66 7.65 11.32 9.3 12 11 C9 10 9 10 7.125 7.625 C4.94338018 4.93005787 2.95542606 3.72399853 0 2 C0 1.34 0 0.68 0 0 Z " fill="#09351F" transform="translate(82,87)"/>
<path d="M0 0 C0.66 0 1.32 0 2 0 C2.103125 1.093125 2.20625 2.18625 2.3125 3.3125 C2.99727202 6.98536808 3.27919304 7.75237686 6 10 C6 10.66 6 11.32 6 12 C2.83884224 10.63016497 2.0072908 10.0109362 0 7 C-0.07905064 4.66800612 -0.08798769 2.33167378 0 0 Z " fill="#0D3825" transform="translate(5,114)"/>
<path d="M0 0 C0.33 0 0.66 0 1 0 C1.16682272 4.92127034 1.24828052 8.50343896 -1 13 C-1.66 12.67 -2.32 12.34 -3 12 C-2.25749403 7.91621717 -1.17076699 3.98060777 0 0 Z " fill="#0B3625" transform="translate(96,105)"/>
<path d="M0 0 C0 3.93169105 -1.39419615 5.16427228 -4 8 C-4.66 8 -5.32 8 -6 8 C-4.73058503 4.08597051 -3.48832306 2.20927127 0 0 Z " fill="#0E3323" transform="translate(61,90)"/>
</svg>
